<?xml version="1.0" encoding="UTF-8"?>
<svg version="1.1" xmlns="http://www.w3.org/2000/svg" width="1280" height="1280">
<path d="M0 0 C16.5 0 33 0 50 0 C56.33446056 15.74954746 62.66820163 31.49938231 69 47.25 C69.47648106 48.43526402 69.95296211 49.62052803 70.44388199 50.84170914 C85.55928285 88.44332202 100.64158463 126.0580183 115.6875 163.6875 C116.12900391 164.79168777 116.57050781 165.89587555 117.02539062 167.03352356 C122.35178642 180.35507258 127.67671189 193.67720885 133 207 C135.01392353 204.98607647 135.61969086 203.82439458 136.65380859 201.23608398 C137.12855873 200.05910698 137.12855873 200.05910698 137.61289978 198.85835266 C137.95462723 197.99630722 138.29635468 197.13426178 138.6484375 196.24609375 C139.19468529 194.88661873 139.19468529 194.88661873 139.75196838 193.49967957 C140.54542626 191.52348042 141.33656874 189.54635046 142.1257019 187.56842041 C143.82814334 183.30185773 145.5419218 179.03988005 147.25517273 174.77764893 C148.15278122 172.54442848 149.04983607 170.31098545 149.94636536 168.07733154 C154.56508793 156.57480105 159.24661782 145.09825007 163.9375 133.625 C164.77332868 131.57936774 165.60910314 129.53371333 166.44482422 127.48803711 C168.12417467 123.3776291 169.8039091 119.26737828 171.48388672 115.15722656 C175.24432764 105.95620589 178.99950856 96.75303867 182.75512695 87.55004883 C183.99201743 84.519558 185.22934065 81.48924422 186.46679688 78.45898438 C190.36143709 68.92105464 194.25290102 59.38186121 198.1343689 49.83856201 C199.96109429 45.34772701 201.78944551 40.85755475 203.61791992 36.36743164 C204.48624493 34.23381009 205.35377968 32.09986673 206.22045898 29.96557617 C207.42489766 26.99966069 208.63209681 24.03488207 209.83984375 21.0703125 C210.18796616 20.210961 210.53608856 19.3516095 210.89476013 18.46621704 C213.44278733 12.22283505 216.20352998 6.15223405 219 0 C235.5 0 252 0 269 0 C269 120.12 269 240.24 269 364 C251.51 364 234.02 364 216 364 C214.00338703 362.00338703 214.84521457 357.98372419 214.84178162 355.24900818 C214.83684364 354.42735973 214.83190566 353.60571128 214.82681805 352.75916439 C214.81136492 349.98454599 214.80306141 347.20995086 214.79467773 344.43530273 C214.78510534 342.45488274 214.77509565 340.47446481 214.76467896 338.49404907 C214.73755457 333.09966542 214.71658593 327.70527295 214.69667697 322.31085849 C214.67486371 316.68004659 214.6474523 311.04926211 214.62062073 305.41847229 C214.57063061 294.74768961 214.52571531 284.07689177 214.48259836 273.40607935 C214.43327987 261.26116636 214.37834182 249.11628085 214.32291877 236.97139442 C214.20900177 211.98095524 214.102184 186.99048971 214 162 C211.14533737 168.69726671 208.29112749 175.39472619 205.43744409 182.09241021 C204.11132654 185.20481308 202.78502808 188.31713854 201.45846558 191.42935181 C195.45071192 205.52426098 189.4544539 219.62364465 183.51852798 233.74897385 C181.97216738 237.42832485 180.42336441 241.10664816 178.875 244.78515625 C176.81527978 249.67926864 174.75869262 254.57467098 172.70703125 259.47216797 C170.73541371 264.17771137 168.75705114 268.88037229 166.77459717 273.58135986 C166.0134236 275.38970782 165.25464032 277.19906392 164.49835205 279.00946045 C163.45553164 281.50502392 162.40455713 283.99699723 161.3515625 286.48828125 C161.04089844 287.23726181 160.73023438 287.98624237 160.41015625 288.75791931 C158.22801324 293.88599338 158.22801324 293.88599338 156 295 C154.5660255 295.10441777 153.12741418 295.14864222 151.68969727 295.16113281 C150.79859756 295.17074036 149.90749786 295.1803479 148.98939514 295.19024658 C147.54251564 295.1966214 147.54251564 295.1966214 146.06640625 295.203125 C145.07752914 295.20882507 144.08865204 295.21452515 143.06980896 295.22039795 C140.97583082 295.22985377 138.88183775 295.23638423 136.7878418 295.24023438 C133.57900172 295.24995004 130.3707993 295.28097223 127.16210938 295.3125 C125.13021215 295.31902889 123.09831033 295.32427981 121.06640625 295.328125 C119.6225631 295.3466452 119.6225631 295.3466452 118.14955139 295.36553955 C117.25529953 295.36253845 116.36104767 295.35953735 115.43969727 295.35644531 C114.65297134 295.36009094 113.86624542 295.36373657 113.05567932 295.36749268 C110.42664266 294.89750122 109.62493342 294.08980597 108 292 C107.05250549 290.22262573 107.05250549 290.22262573 106.23266602 288.21435547 C105.75806694 287.06760597 105.75806694 287.06760597 105.27388 285.89768982 C104.93728867 285.06262405 104.60069733 284.22755829 104.25390625 283.3671875 C103.89092941 282.48398331 103.52795258 281.60077911 103.15397644 280.69081116 C101.94958745 277.75511001 100.75604542 274.8151246 99.5625 271.875 C98.71647055 269.80645594 97.86977949 267.73818236 97.02246094 265.67016602 C94.78947499 260.21514358 92.56556033 254.75646623 90.34332275 249.29705811 C88.17623852 243.97815568 85.99987145 238.66305807 83.82421875 233.34765625 C73.8312186 208.91929932 63.91613239 184.45979323 54 160 C53.67 227.32 53.34 294.64 53 364 C35.51 364 18.02 364 0 364 C0 243.88 0 123.76 0 0 Z " fill="#FEFEFE" transform="translate(655,474)"/>
<path d="M0 0 C0.97484848 0.00222061 1.94969696 0.00444122 2.9540863 0.00672913 C4.05515213 0.00680466 5.15621796 0.00688019 6.29064941 0.00695801 C7.48854599 0.01211929 8.68644257 0.01728058 9.92063904 0.02259827 C11.14000656 0.02401321 12.35937408 0.02542816 13.61569214 0.02688599 C17.52856349 0.03250485 21.4413786 0.04506055 25.35423279 0.05775452 C27.99941426 0.06276709 30.64459662 0.06733041 33.28977966 0.07142639 C39.79045005 0.08248041 46.2910874 0.09923688 52.79173279 0.12025452 C53.81097588 3.25571594 53.77310907 5.03232415 52.6938324 8.13270569 C52.42350189 8.92633514 52.15317139 9.7199646 51.87464905 10.53764343 C51.56756012 11.40408478 51.26047119 12.27052612 50.94407654 13.16322327 C50.62570831 14.08896149 50.30734009 15.01469971 49.97932434 15.9684906 C49.27827458 18.00287797 48.57232642 20.03558212 47.86219788 22.06681824 C46.70526634 25.37631244 45.56073501 28.6898665 44.41941833 32.004776 C43.18701691 35.58352985 41.95371396 39.16195143 40.7166748 42.73910522 C36.24350552 55.675842 31.85915343 68.6422273 27.47966003 81.61091614 C26.09053929 85.72406907 24.69944117 89.83655144 23.30784607 93.9488678 C23.07525023 94.63621946 22.84265438 95.32357113 22.60301018 96.03175163 C22.13149981 97.42510635 21.65998478 98.81845949 21.18846512 100.21181107 C20.00390292 103.7124628 18.81970316 107.21323713 17.63548279 110.71400452 C12.95932598 124.5372347 8.28211179 138.36010704 3.60423279 152.18275452 C3.37527061 152.85932854 3.14630844 153.53590256 2.91040802 154.23297882 C-4.02816422 174.736009 -10.97626217 195.23578664 -17.93321228 215.73258972 C-23.53249567 232.22940472 -29.12571933 248.72825973 -34.71311188 265.229105 C-36.25163738 269.77249019 -37.79104496 274.31557588 -39.33082581 278.85853577 C-40.20279358 281.43143203 -41.0746941 284.00435107 -41.94654846 286.57728577 C-42.16198555 287.21304157 -42.37742264 287.84879738 -42.59938812 288.50381851 C-45.51622175 297.11245908 -48.42449687 305.72394566 -51.32603455 314.3377533 C-52.87820896 318.945341 -54.4333128 323.55193825 -55.98923302 328.15826225 C-57.04169756 331.27475609 -58.09200233 334.39195271 -59.13941956 337.51014709 C-60.28731684 340.92710581 -61.44053659 344.34222372 -62.59498596 347.75697327 C-62.93354111 348.76942612 -63.27209625 349.78187897 -63.62091064 350.82501221 C-63.93421829 351.7483284 -64.24752594 352.67164459 -64.57032776 353.62294006 C-64.84007919 354.42410751 -65.10983063 355.22527496 -65.38775635 356.05072021 C-66.20826721 358.12025452 -66.20826721 358.12025452 -68.20826721 361.12025452 C-70.38493347 361.48101807 -70.38493347 361.48101807 -73.11695862 361.46083069 C-74.64831955 361.4604908 -74.64831955 361.4604908 -76.21061707 361.46014404 C-77.31585724 361.44466019 -78.42109741 361.42917633 -79.55982971 361.41322327 C-81.25358231 361.406856 -81.25358231 361.406856 -82.98155212 361.40036011 C-86.59902994 361.38352583 -90.21595691 361.34586427 -93.83326721 361.30775452 C-96.28117585 361.29271385 -98.72909319 361.27902438 -101.17701721 361.26673889 C-107.18762281 361.23360679 -113.19790567 361.18336031 -119.20826721 361.12025452 C-128.17010067 335.83553768 -136.8148304 310.45276144 -145.27076721 284.99525452 C-145.74927695 283.55483305 -146.22779258 282.11441353 -146.70631409 280.67399597 C-146.94291685 279.96178233 -147.17951962 279.24956869 -147.42329216 278.51577282 C-148.60006315 274.97369338 -149.77707824 271.43169516 -150.95436096 267.88978577 C-151.18335964 267.20077745 -151.41235832 266.51176914 -151.64829636 265.80188179 C-155.65697586 253.74403047 -159.7158511 241.70393643 -163.83326721 229.68275452 C-164.11048615 228.87325348 -164.38770508 228.06375244 -164.67332458 227.22972107 C-166.51390098 221.85838151 -168.36015792 216.48900612 -170.20826721 211.12025452 C-172.25132159 205.18323119 -174.29357735 199.24593469 -176.33326721 193.30775452 C-176.57879333 192.5929895 -176.82431946 191.87822449 -177.07728577 191.14179993 C-182.90239076 174.17282764 -188.55686553 157.14768657 -194.20826721 140.12025452 C-201.07629131 119.4297216 -207.96638373 98.74811778 -215.02076721 78.12025452 C-215.5858817 76.46604255 -216.15098582 74.81182704 -216.71607971 73.15760803 C-219.68748163 64.46453597 -222.67071108 55.77565217 -225.66687012 47.09107971 C-227.25501853 42.48287787 -228.83692789 37.87254772 -230.41783142 33.26185608 C-231.19042409 31.01348983 -231.96580428 28.76607938 -232.74406433 26.51966858 C-233.83026534 23.38367517 -234.90698234 20.24457193 -235.98170471 17.10462952 C-236.30909134 16.16697754 -236.63647797 15.22932556 -236.9737854 14.26325989 C-237.26949936 13.39332397 -237.56521332 12.52338806 -237.86988831 11.62709045 C-238.12966461 10.87361328 -238.38944092 10.12013611 -238.65708923 9.34382629 C-239.27615247 6.84639061 -239.37253951 4.68391767 -239.20826721 2.12025452 C-237.56123034 0.47321764 -235.63866278 0.95937221 -233.36891174 0.92738342 C-232.33759125 0.9113205 -231.30627075 0.89525757 -230.24369812 0.87870789 C-225.52274579 0.834461 -220.80193673 0.79319882 -216.08082581 0.77015686 C-213.58593938 0.75357846 -211.0911008 0.72626412 -208.59645081 0.68812561 C-205.01107488 0.63355007 -201.42681423 0.61151226 -197.84107971 0.59681702 C-196.16285629 0.56281296 -196.16285629 0.56281296 -194.45072937 0.52812195 C-186.8115699 0.54910437 -186.8115699 0.54910437 -184.21095276 3.01112366 C-183.71462341 4.55014343 -183.71462341 4.55014343 -183.20826721 6.12025452 C-182.94122986 6.82660034 -182.6741925 7.53294617 -182.39906311 8.26069641 C-181.38548048 10.95265381 -180.45613532 13.66568426 -179.53248596 16.38978577 C-179.17524948 17.42823135 -178.818013 18.46667694 -178.44995117 19.53659058 C-177.25986831 23.00016676 -176.07788268 26.46645178 -174.89576721 29.93275452 C-174.05044947 32.39762356 -173.20457177 34.86230063 -172.35816956 37.32679749 C-170.56037517 42.56333618 -168.76624432 47.80111731 -166.97438049 53.03968811 C-164.25728047 60.98217054 -161.52909421 68.92081797 -158.79811096 76.85853577 C-158.3452455 78.17495049 -157.892385 79.49136691 -157.43952942 80.80778503 C-156.75731523 82.79092989 -156.0750993 84.77407414 -155.39285278 86.75720787 C-153.07924478 93.48274762 -150.76819948 100.20916728 -148.45726776 106.93562698 C-139.81533695 132.08940869 -131.15928687 157.2383194 -122.49519348 182.38447571 C-121.19322247 186.16392743 -119.89183374 189.94357921 -118.59059143 193.72328186 C-116.45314556 199.93172565 -114.31365118 206.13946151 -112.17295837 212.3467865 C-111.38284424 214.63867927 -110.59328393 216.93076307 -109.80436707 219.22306824 C-104.4066409 234.90482893 -98.86513942 250.53007345 -93.20826721 266.12025452 C-92.93868195 265.32180618 -92.66909668 264.52335785 -92.39134216 263.70071411 C-69.42432978 195.68149511 -69.42432978 195.68149511 -62.08326721 174.24525452 C-56.32669776 157.43573769 -50.62881553 140.60656088 -44.93695068 123.77505493 C-38.05898146 103.43611285 -31.1760488 83.09909349 -24.22120667 62.78627014 C-23.68430215 61.21792421 -23.14743702 59.6495648 -22.61061096 58.08119202 C-22.21235863 56.91768219 -22.21235863 56.91768219 -21.80606079 55.73066711 C-19.46991092 48.89884301 -17.15304242 42.060538 -14.83717346 35.22181702 C-13.7215968 31.93117221 -12.60580066 28.6406019 -11.48994446 25.35005188 C-10.76497014 23.2100694 -10.04103918 21.06973314 -9.31819153 18.92903137 C-8.31930875 15.97105023 -7.31689314 13.01428827 -6.31373596 10.05775452 C-6.01342972 9.16520966 -5.71312347 8.27266479 -5.40371704 7.35307312 C-5.12805405 6.54276642 -4.85239105 5.73245972 -4.56837463 4.89759827 C-4.32858383 4.18853333 -4.08879303 3.47946838 -3.84173584 2.74891663 C-2.89283854 0.3092803 -2.68904159 0.14643581 0 0 Z " fill="#FEFEFE" transform="translate(572.2082672119141,474.87974548339844)"/>
</svg>
